# Blender v3.5.1 OBJ File: ''
# www.blender.org
mtllib rocks.mtl
o rocks
v 0.372629 0.402395 -0.034674
v 0.372609 0.402454 -0.034675
v 0.372629 0.402395 -0.034674
v 0.372604 0.402467 -0.034675
v 0.372608 0.402455 -0.034675
v 0.372629 0.402395 -0.034674
v 0.372613 0.402442 -0.034675
v 0.372629 0.402395 -0.034674
v 0.238180 0.415087 -0.105274
v 0.238600 0.414441 -0.105464
v 0.238587 0.414448 -0.105456
v 0.238251 0.415000 -0.105309
v 0.238311 0.414869 -0.105331
v 0.238611 0.414436 -0.105471
v 0.238383 0.414788 -0.105368
v 0.238613 0.414435 -0.105472
v -0.044062 0.469610 0.164669
v -0.042589 0.470909 0.162249
v -0.043455 0.469236 0.163370
v -0.043804 0.468628 0.163843
v -0.043477 0.468071 0.163026
v -0.042635 0.468870 0.161662
v -0.044141 0.467441 0.164101
v -0.043902 0.467667 0.163715
v -0.081412 0.400000 -0.369589
v -0.081183 0.400779 -0.369549
v -0.081404 0.400000 -0.369584
v -0.081149 0.401051 -0.369553
v -0.081226 0.400783 -0.369563
v -0.081274 0.400631 -0.369574
v -0.081419 0.400000 -0.369589
v -0.081411 0.400000 -0.369586
v 0.091993 0.400000 0.380395
v 0.091448 0.401077 0.379530
v 0.092000 0.400000 0.380419
v 0.091284 0.401317 0.379225
v 0.091468 0.400956 0.379527
v 0.091983 0.400000 0.380382
v 0.091991 0.400000 0.380401
v 0.091588 0.400734 0.379719
v 0.100000 0.400000 0.500000
v 0.150000 0.000000 0.450000
v 0.150000 0.400000 0.450000
v 0.100000 0.000000 0.500000
v -0.500000 -0.000000 -0.100000
v -0.450000 0.400000 -0.150000
v -0.450000 -0.000000 -0.150000
v -0.500000 0.400000 -0.100000
v 0.450000 0.400000 -0.150000
v 0.500000 -0.000000 -0.100000
v 0.450000 -0.000000 -0.150000
v 0.500000 0.400000 -0.100000
v 0.100000 0.400000 -0.500000
v 0.150000 -0.000000 -0.450000
v 0.100000 -0.000000 -0.500000
v 0.150000 0.400000 -0.450000
v -0.500000 -0.000000 -0.300000
v -0.450000 0.500000 -0.450000
v -0.450000 -0.000000 -0.450000
v -0.500000 0.500000 -0.300000
v 0.450000 0.500000 0.450000
v 0.300000 0.000000 0.500000
v 0.450000 0.000000 0.450000
v 0.300000 0.500000 0.500000
v -0.450000 0.400000 0.150000
v -0.500000 0.000000 0.100000
v -0.450000 0.000000 0.150000
v -0.500000 0.400000 0.100000
v -0.100000 0.400000 0.500000
v -0.150000 0.000000 0.450000
v -0.100000 0.000000 0.500000
v -0.150000 0.400000 0.450000
v 0.300000 0.450000 -0.500000
v 0.450000 -0.000000 -0.450000
v 0.300000 -0.000000 -0.500000
v 0.450000 0.450000 -0.450000
v 0.450000 0.400000 0.150000
v 0.500000 0.000000 0.100000
v 0.500000 0.400000 0.100000
v 0.450000 0.000000 0.150000
v -0.150000 -0.000000 -0.450000
v -0.100000 0.400000 -0.500000
v -0.100000 -0.000000 -0.500000
v -0.150000 0.400000 -0.450000
v -0.500000 0.000000 0.300000
v -0.450000 0.000000 0.450000
v -0.300000 -0.000000 -0.500000
v -0.300000 0.000000 0.500000
v 0.500000 -0.000000 -0.300000
v 0.500000 0.000000 0.300000
v -0.200000 0.450000 0.200000
v -0.300000 0.450000 0.500000
v -0.150000 0.450000 0.450000
v -0.450000 0.450000 0.150000
v -0.450000 0.450000 0.450000
v -0.500000 0.450000 0.300000
v 0.450000 0.450000 -0.150000
v 0.500000 0.450000 -0.300000
v 0.197636 0.456660 -0.197681
v 0.150000 0.450000 -0.450000
v 0.450000 0.500000 0.150000
v 0.500000 0.500000 0.300000
v 0.199259 0.501732 0.199259
v 0.150000 0.500000 0.450000
v -0.300000 0.500000 -0.500000
v -0.200000 0.500000 -0.200000
v -0.150000 0.500000 -0.450000
v -0.450000 0.500000 -0.150000
v 0.202764 0.413854 0.185424
v 0.194626 0.416169 -0.194123
v -0.200043 0.400018 0.199921
v -0.206507 0.401446 -0.192049
vt 8.633210 -2.867423
vt 5.188329 -0.838336
vt 4.696203 -2.867423
vt 8.141085 -0.838336
vt -8.377806 -0.064774
vt -11.822690 -2.093861
vt -7.885680 -2.093861
vt -11.330560 -0.064774
vt -5.188329 3.941646
vt -8.633210 1.912558
vt -4.696203 1.912558
vt -8.141085 3.941646
vt 12.406720 -1.172056
vt 11.325940 2.861483
vt 9.849557 0.304322
vt 13.883100 1.385105
vt 11.330560 3.168084
vt 7.885680 1.138996
vt 11.822690 1.138996
vt 8.377806 3.168084
vt -1.714295 0.070491
vt -5.159176 -1.958596
vt -1.222169 -1.958596
vt -4.667050 0.070491
vt -4.630618 2.325507
vt -8.075500 0.296419
vt -4.138492 0.296419
vt -7.583374 2.325507
vt 8.075500 -1.251284
vt 4.630618 0.777803
vt 4.138492 -1.251284
vt 7.583374 0.777803
vt 5.706517 3.264911
vt 3.618603 6.881284
vt 2.854373 4.029141
vt 6.470746 6.117054
vt 4.667050 3.032819
vt 1.222169 1.003732
vt 5.159176 1.003732
vt 1.714295 3.032819
vt -11.821440 -13.431870
vt -7.645609 -6.199126
vt -13.349900 -7.727585
vt -6.117150 -11.903410
vt -8.989544 -2.673251
vt -15.879310 -4.874105
vt -8.005292 -4.874105
vt -14.895060 -2.673251
vt -3.024815 3.580075
vt -9.914578 5.780930
vt -10.898830 3.580075
vt -4.009067 5.780930
vt 9.914578 -4.900588
vt 3.024815 -7.101442
vt 10.898830 -7.101442
vt 4.009067 -4.900588
vt 14.895060 3.553593
vt 8.005292 1.352738
vt 15.879310 1.352738
vt 8.989544 3.553593
vt 23.036320 -1.013460
vt 19.591440 1.015627
vt 19.099310 -1.013460
vt 22.544189 1.015627
vt -9.160296 17.333540
vt -8.079513 21.367081
vt -10.636670 19.890699
vt -6.603134 18.809919
vt -19.591440 2.087683
vt -23.036320 0.058596
vt -19.099310 0.058596
vt -22.544189 2.087683
vt -0.733722 -3.558040
vt -4.178604 -5.587128
vt -0.241596 -5.587128
vt -3.686478 -3.558040
vt 3.686478 6.661350
vt 0.241596 4.632263
vt 4.178604 4.632263
vt 0.733722 6.661350
vt -16.090851 1.569558
vt -19.535740 3.598646
vt -20.027861 1.569558
vt -16.582979 3.598646
vt 19.535740 -0.495335
vt 16.090851 -2.524423
vt 20.027861 -2.524423
vt 16.582979 -0.495335
vt -6.963580 -2.828383
vt -10.408460 -4.857471
vt -6.471454 -4.857471
vt -9.916336 -2.828383
vt -4.522224 -21.436609
vt -2.434311 -17.820240
vt -5.286454 -18.584471
vt -1.670081 -20.672380
vt 9.916336 5.931693
vt 6.471454 3.902606
vt 10.408460 3.902606
vt 6.963580 5.931693
vt -11.135540 15.748030
vt -8.351655 0.000000
vt -8.351655 15.748030
vt -11.135540 0.000000
vt 11.135540 0.000000
vt 8.351655 15.748030
vt 8.351655 0.000000
vt 11.135540 15.748030
vt -8.351655 15.748030
vt -11.135540 0.000000
vt -8.351655 0.000000
vt -11.135540 15.748030
vt 11.135540 15.748030
vt 8.351655 0.000000
vt 11.135540 0.000000
vt 8.351655 15.748030
vt -4.979965 0.000000
vt -11.204920 19.685040
vt -11.204920 0.000000
vt -4.979965 19.685040
vt 11.204920 19.685040
vt 4.979965 0.000000
vt 11.204920 0.000000
vt 4.979965 19.685040
vt -8.351655 15.748030
vt -11.135540 0.000000
vt -8.351655 0.000000
vt -11.135540 15.748030
vt 11.135540 15.748030
vt 8.351655 0.000000
vt 11.135540 0.000000
vt 8.351655 15.748030
vt -4.979965 17.716539
vt -11.204920 0.000000
vt -4.979965 0.000000
vt -11.204920 17.716539
vt 8.351655 15.748030
vt 11.135540 0.000000
vt 11.135540 15.748030
vt 8.351655 0.000000
vt -8.351655 0.000000
vt -11.135540 15.748030
vt -11.135540 0.000000
vt -8.351655 15.748030
vt 3.937008 0.000000
vt -3.937008 15.748030
vt -3.937008 0.000000
vt 3.937008 15.748030
vt -19.685040 11.811020
vt -17.716539 5.905512
vt -17.716539 17.716539
vt -11.811020 -19.685040
vt -11.811020 19.685040
vt -5.905512 -17.716539
vt -5.905512 17.716539
vt -3.937008 -19.685040
vt -3.937008 19.685040
vt 3.937008 -19.685040
vt 3.937008 19.685040
vt 5.905512 -17.716539
vt 5.905512 17.716539
vt 11.811020 -19.685040
vt 11.811020 19.685040
vt -17.716539 -17.716539
vt 17.716539 -17.716539
vt -17.716539 -5.905512
vt -19.685040 -11.811020
vt -19.685040 3.937008
vt -19.685040 -3.937008
vt 17.716539 -5.905512
vt 19.685040 -11.811020
vt 17.716539 5.905512
vt 19.685040 -3.937008
vt 19.685040 3.937008
vt 17.716539 17.716539
vt 19.685040 11.811020
vt 3.937008 15.748030
vt -3.937008 0.000000
vt 3.937008 0.000000
vt -3.937008 15.748030
vt 7.874016 7.874016
vt 11.811020 19.685040
vt 5.905512 17.716539
vt 17.716539 5.905512
vt 17.716539 17.716539
vt 19.685040 11.811020
vt -17.716539 -17.716539
vt -17.716539 -5.905512
vt -19.685040 -11.811020
vt -7.874016 -7.874016
vt -11.811020 -19.685040
vt -5.905512 -17.716539
vt -17.716539 5.905512
vt -17.716539 17.716539
vt -19.685040 11.811020
vt -11.811020 19.685040
vt -7.874016 7.874016
vt -5.905512 17.716539
vt 11.811020 -19.685040
vt 7.874016 -7.874016
vt 5.905512 -17.716539
vt 17.716539 -5.905512
vt 17.716539 -17.716539
vt 19.685040 -11.811020
vt -3.937008 15.748030
vt 3.937008 0.000000
vt 3.937008 15.748030
vt -3.937008 0.000000
vt -4.979965 17.716539
vt -11.204920 0.000000
vt -4.979965 0.000000
vt -11.204920 17.716539
vt -11.204920 15.748030
vt -17.429880 0.000000
vt -11.204920 0.000000
vt -17.429880 17.716539
vt -11.204920 17.716539
vt 4.979965 17.716539
vt 11.204920 0.000000
vt 11.204920 17.716539
vt 4.979965 0.000000
vt -17.429880 19.685040
vt -11.204920 15.748030
vt -11.204920 19.685040
vt -11.204920 0.000000
vt -17.429880 0.000000
vt 11.204920 17.716539
vt 17.429880 0.000000
vt 17.429880 17.716539
vt 11.204920 0.000000
vt 11.204920 15.748030
vt -11.204920 15.748030
vt -17.429880 0.000000
vt -11.204920 0.000000
vt -17.429880 17.716539
vt -11.204920 17.716539
vt 17.429880 19.685040
vt 11.204920 -0.000000
vt 17.429880 -0.000000
vt 11.204920 15.748030
vt 11.204920 19.685040
vt 17.429880 -0.000000
vt 11.204920 15.748030
vt 11.204920 -0.000000
vt 11.204920 17.716539
vt 17.429880 17.716539
vt -11.204920 0.000000
vt -17.429880 19.685040
vt -17.429880 0.000000
vt -11.204920 19.685040
vt -11.204920 15.748030
vt 17.429880 19.685040
vt 11.204920 0.000000
vt 17.429880 0.000000
vt 11.204920 15.748030
vt 11.204920 19.685040
vt -19.685040 -3.937008
vt -17.716539 5.905512
vt -19.685040 3.937008
vt -17.716539 -5.905512
vt -7.874016 7.874016
vt -7.874016 -7.874016
vt -5.905512 17.716539
vt -5.905512 -17.716539
vt -3.937008 19.685040
vt -3.937008 -19.685040
vt 3.937008 19.685040
vt 3.937008 -19.685040
vt 5.905512 17.716539
vt 5.905512 -17.716539
vt 7.874016 7.874016
vt 7.874016 -7.874016
vt 17.716539 5.905512
vt 17.716539 -5.905512
vt 19.685040 3.937008
vt 19.685040 -3.937008
vt 16.214331 15.748030
vt 6.176886 19.685040
vt 6.176886 15.748030
vt 16.214331 19.685040
vt 3.937008 15.748030
vt -3.937008 0.000000
vt 3.937008 0.000000
vt -3.937008 15.748030
vt -6.176886 19.685040
vt -16.214331 15.748030
vt -6.176886 15.748030
vt -16.214331 19.685040
vt 11.204920 19.685040
vt 4.979965 0.000000
vt 11.204920 0.000000
vt 4.979965 19.685040
vt -16.214331 17.716539
vt -6.176886 15.748030
vt -6.176886 17.716539
vt -16.214331 15.748030
vt 16.214331 17.716539
vt 6.176886 15.748030
vt 16.214331 15.748030
vt 6.176886 17.716539
vt 11.204920 0.000000
vt 4.979965 17.716539
vt 4.979965 0.000000
vt 11.204920 17.716539
vt -11.204920 19.685040
vt -4.979965 0.000000
vt -4.979965 19.685040
vt -11.204920 0.000000
vt 16.214331 17.716539
vt 6.176886 15.748030
vt 16.214331 15.748030
vt 6.176886 17.716539
vt -6.176886 19.685040
vt -16.214331 15.748030
vt -6.176886 15.748030
vt -16.214331 19.685040
vt -6.176886 15.748030
vt -16.214331 17.716539
vt -16.214331 15.748030
vt -6.176886 17.716539
vt 6.176886 19.685040
vt 16.214331 15.748030
vt 16.214331 19.685040
vt 6.176886 15.748030
vn 0.9286 0.2106 0.3054
vn -0.3122 -0.0864 0.9461
vn -0.3269 -0.0938 0.9404
vn 0.6992 0.3997 0.5928
vn -0.8464 -0.3090 -0.4337
vn 0.4715 0.1154 -0.8743
vn -0.8941 -0.3440 -0.2867
vn -0.7382 -0.2846 -0.6117
vn 0.7536 0.2980 -0.5859
vn -0.5403 -0.1056 -0.8348
vn -0.6818 -0.5427 0.4906
vn -0.2726 -0.9000 0.3400
vn 0.8087 0.2065 -0.5508
vn 0.5858 0.1473 0.7970
vn -0.3644 -0.3512 0.8625
vn 0.5079 0.5382 -0.6726
vn -0.3788 0.3615 0.8519
vn 0.4264 0.6291 -0.6499
vn -0.8783 0.1507 -0.4538
vn 0.4779 0.3156 -0.8198
vn 0.8783 -0.1508 0.4538
vn -0.4172 0.8926 -0.1712
vn 0.1423 0.7621 -0.6317
vn 0.8782 -0.1507 0.4539
vn 0.2175 -0.0296 -0.9756
vn 0.9230 -0.1638 0.3481
vn 0.8719 -0.2617 0.4139
vn 0.1468 0.9873 -0.0610
vn -0.5322 0.1161 0.8386
vn -0.8869 0.2301 -0.4007
vn -0.9601 0.2191 -0.1738
vn -0.3236 0.0464 0.9451
vn 0.9197 0.1759 -0.3511
vn 0.1011 0.7682 0.6321
vn 0.2927 0.6938 0.6580
vn -0.3784 0.7020 -0.6034
vn -0.4441 -0.7017 -0.5571
vn -0.2686 -0.7236 -0.6357
vn -0.9027 -0.1206 0.4129
vn 0.0573 -0.6465 -0.7608
vn 0.3827 0.0000 0.9239
vn 0.7071 0.0000 0.7071
vn -0.9239 -0.0000 -0.3827
vn -0.7071 -0.0000 -0.7071
vn 0.7071 -0.0000 -0.7071
vn 0.9239 -0.0000 -0.3827
vn 0.3827 -0.0000 -0.9239
vn -0.9487 -0.0000 -0.3162
vn 0.3162 0.0000 0.9487
vn -0.7071 0.0000 0.7071
vn -0.9239 0.0000 0.3827
vn -0.3827 0.0000 0.9239
vn 0.3162 -0.0000 -0.9487
vn 0.9239 -0.0000 0.3827
vn -0.3827 -0.0000 -0.9239
vn -0.0000 -1.0000 0.0000
vn -0.0000 1.0000 -0.0000
vn 0.0127 0.9999 -0.0099
vn 0.0214 0.9998 -0.0000
vn 0.0126 0.9999 -0.0112
vn 0.0011 0.9998 -0.0217
vn -0.0083 0.9997 -0.0248
vn 0.0043 1.0000 0.0018
vn 0.0014 1.0000 0.0033
vn 0.0050 1.0000 0.0041
vn -0.0022 1.0000 0.0065
vn -0.3162 0.0000 0.9487
vn -0.3162 -0.0000 -0.9487
vn 0.9487 0.0000 -0.3162
vn 0.9487 0.0000 0.3162
vn -0.9487 0.0000 0.3162
vn 0.0384 0.9993 0.0000
vn 0.0414 0.9991 0.0021
vn -0.1183 0.9929 0.0077
vn -0.2141 0.9768 0.0018
vn -0.0203 0.9998 0.0005
vn -0.0247 0.9997 -0.0000
vn 0.0021 1.0000 0.0002
vn 0.0008 1.0000 0.0012
vn 0.0252 0.9997 0.0026
vn -0.0018 1.0000 0.0016
vn -0.0041 1.0000 0.0000
vn -0.9811 -0.0018 -0.1935
vn -0.7255 0.0595 -0.6856
vn -0.6465 0.0934 -0.7572
vn -0.9812 0.0000 -0.1928
vn -0.1801 0.0322 -0.9831
vn -0.1928 -0.0000 -0.9812
vn 0.9806 -0.0001 -0.1962
vn 0.7067 0.0005 -0.7076
vn 0.7075 0.0005 -0.7067
vn 0.9806 0.0000 -0.1962
vn 0.1959 0.0002 -0.9806
vn 0.1958 0.0000 -0.9806
vn -0.1715 0.0098 0.9851
vn -0.7012 0.1003 0.7059
vn -0.1703 0.0000 0.9854
vn -0.7050 0.1139 0.7000
vn 0.7208 0.0059 0.6931
vn 0.1899 0.0161 0.9817
vn 0.6641 0.0165 0.7474
vn 0.1961 0.0000 0.9806
vn -0.9849 0.0087 0.1729
vn -0.9851 0.0000 0.1718
vn 0.9797 -0.0111 0.2004
vn 0.9806 0.0000 0.1961
usemtl grey
s 1
f 1/1/1 2/2/2 3/3/3
f 2/2/2 1/1/1 4/4/4
f 5/5/5 1/6/1 6/7/6
f 1/6/1 5/5/5 4/8/4
f 7/9/7 6/10/6 8/11/8
f 6/10/6 7/9/7 5/12/5
f 2/13/2 5/14/5 7/15/7
f 5/14/5 2/13/2 4/16/4
f 2/17/2 8/18/8 3/19/3
f 8/18/8 2/17/2 7/20/7
f 9/21/9 10/22/10 11/23/11
f 10/22/10 9/21/9 12/24/12
f 13/25/13 11/26/11 14/27/14
f 11/26/11 13/25/13 9/28/9
f 10/29/10 15/30/15 16/31/16
f 15/30/15 10/29/10 12/32/12
f 15/33/15 9/34/9 13/35/13
f 9/34/9 15/33/15 12/36/12
f 15/37/15 14/38/14 16/39/16
f 14/38/14 15/37/15 13/40/13
f 17/41/17 18/42/18 19/43/19
f 18/42/18 17/41/17 20/44/20
f 20/45/20 21/46/21 22/47/22
f 21/46/21 20/45/20 17/48/17
f 23/49/23 20/50/20 22/51/22
f 20/50/20 23/49/23 18/52/18
f 17/53/17 24/54/24 21/55/21
f 24/54/24 17/53/17 19/56/19
f 19/57/19 23/58/23 24/59/24
f 23/58/23 19/57/19 18/60/18
f 25/61/25 26/62/26 27/63/27
f 26/62/26 25/61/25 28/64/28
f 29/65/29 28/66/28 30/67/30
f 28/66/28 29/65/29 26/68/26
f 29/69/29 31/70/31 32/71/32
f 31/70/31 29/69/29 30/72/30
f 30/73/30 25/74/25 31/75/31
f 25/74/25 30/73/30 28/76/28
f 26/77/26 32/78/32 27/79/27
f 32/78/32 26/77/26 29/80/29
f 33/81/33 34/82/34 35/83/35
f 34/82/34 33/81/33 36/84/36
f 37/85/37 38/86/38 39/87/39
f 38/86/38 37/85/37 40/88/40
f 34/89/34 39/90/39 35/91/35
f 39/90/39 34/89/34 37/92/37
f 37/93/37 36/94/36 40/95/40
f 36/94/36 37/93/37 34/96/34
f 40/97/40 33/98/33 38/99/38
f 33/98/33 40/97/40 36/100/36
f 41/101/41 42/102/42 43/103/42
f 42/102/42 41/101/41 44/104/41
f 45/105/43 46/106/44 47/107/44
f 46/106/44 45/105/43 48/108/43
f 49/109/45 50/110/46 51/111/45
f 50/110/46 49/109/45 52/112/46
f 53/113/47 54/114/45 55/115/47
f 54/114/45 53/113/47 56/116/45
f 57/117/48 58/118/44 59/119/44
f 58/118/44 57/117/48 60/120/48
f 61/121/42 62/122/49 63/123/42
f 62/122/49 61/121/42 64/124/49
f 65/125/50 66/126/51 67/127/50
f 66/126/51 65/125/50 68/128/51
f 69/129/52 70/130/50 71/131/52
f 70/130/50 69/129/52 72/132/50
f 73/133/53 74/134/45 75/135/53
f 74/134/45 73/133/53 76/136/45
f 77/137/42 78/138/54 79/139/54
f 78/138/54 77/137/42 80/140/42
f 81/141/44 82/142/55 83/143/55
f 82/142/55 81/141/44 84/144/44
f 66/145/51 48/146/43 45/147/43
f 48/146/43 66/145/51 68/148/51
f 85/149/56 67/150/56 86/151/56
f 87/152/56 86/151/56 67/150/56
f 87/152/56 88/153/56 86/151/56
f 81/154/56 88/153/56 87/152/56
f 81/154/56 70/155/56 88/153/56
f 83/156/56 70/155/56 81/154/56
f 83/156/56 71/157/56 70/155/56
f 55/158/56 71/157/56 83/156/56
f 55/158/56 44/159/56 71/157/56
f 54/160/56 44/159/56 55/158/56
f 54/160/56 42/161/56 44/159/56
f 75/162/56 42/161/56 54/160/56
f 75/162/56 62/163/56 42/161/56
f 87/152/56 67/150/56 59/164/56
f 74/165/56 62/163/56 75/162/56
f 59/164/56 67/150/56 47/166/56
f 59/164/56 47/166/56 57/167/56
f 66/168/56 47/166/56 67/150/56
f 47/166/56 66/168/56 45/169/56
f 51/170/56 62/163/56 74/165/56
f 74/165/56 89/171/56 51/170/56
f 80/172/56 62/163/56 51/170/56
f 50/173/56 80/172/56 51/170/56
f 80/172/56 50/173/56 78/174/56
f 80/172/56 63/175/56 62/163/56
f 63/175/56 80/172/56 90/176/56
f 41/177/41 71/178/52 44/179/41
f 71/178/52 41/177/41 69/180/52
f 91/181/57 92/182/57 93/183/57
f 92/182/57 91/181/57 94/184/57
f 92/182/57 94/184/57 95/185/57
f 95/185/57 94/184/57 96/186/57
f 76/187/58 97/188/59 98/189/57
f 97/188/59 76/187/58 99/190/60
f 99/190/60 76/187/58 73/191/61
f 99/190/60 73/191/61 100/192/62
f 101/193/63 61/194/57 102/195/57
f 61/194/57 101/193/63 64/196/64
f 64/196/64 101/193/63 103/197/65
f 64/196/64 103/197/65 104/198/66
f 105/199/57 106/200/57 107/201/57
f 106/200/57 105/199/57 108/202/57
f 108/202/57 105/199/57 58/203/57
f 108/202/57 58/203/57 60/204/57
f 79/205/54 50/206/46 52/207/46
f 50/206/46 79/205/54 78/208/54
f 92/209/67 86/210/50 88/211/67
f 86/210/50 92/209/67 95/212/50
f 56/213/68 75/214/68 54/215/68
f 75/214/68 56/213/68 73/216/68
f 73/216/68 56/213/68 100/217/68
f 98/218/69 74/219/45 76/220/45
f 74/219/45 98/218/69 89/221/69
f 102/222/69 77/223/69 101/224/69
f 77/223/69 102/222/69 80/225/69
f 80/225/69 102/222/69 90/226/69
f 97/227/70 89/228/70 98/229/70
f 89/228/70 97/227/70 51/230/70
f 51/230/70 97/227/70 49/231/70
f 72/232/49 88/233/49 70/234/49
f 88/233/49 72/232/49 92/235/49
f 92/235/49 72/232/49 93/236/49
f 64/237/67 42/238/67 62/239/67
f 42/238/67 64/237/67 43/240/67
f 43/240/67 64/237/67 104/241/67
f 85/242/48 65/243/48 67/244/48
f 65/243/48 85/242/48 94/245/48
f 94/245/48 85/242/48 96/246/48
f 47/247/71 60/248/71 57/249/71
f 60/248/71 47/247/71 108/250/71
f 108/250/71 47/247/71 46/251/68
f 105/252/53 81/253/53 87/254/53
f 81/253/53 105/252/53 84/255/53
f 84/255/53 105/252/53 107/256/53
f 52/257/57 77/258/72 79/259/57
f 77/258/72 52/257/57 49/260/73
f 77/258/72 49/260/73 109/261/74
f 109/261/74 49/260/73 110/262/75
f 109/261/74 110/262/75 43/263/76
f 43/263/76 110/262/75 56/264/77
f 43/263/76 56/264/77 41/265/57
f 41/265/57 56/264/77 53/266/57
f 41/265/57 53/266/57 69/267/57
f 69/267/57 53/266/57 82/268/57
f 69/267/57 82/268/57 72/269/57
f 72/269/57 82/268/57 84/270/78
f 72/269/57 84/270/78 111/271/79
f 111/271/79 84/270/78 112/272/80
f 111/271/79 112/272/80 65/273/81
f 65/273/81 112/272/80 46/274/82
f 65/273/81 46/274/82 68/275/57
f 68/275/57 46/274/82 48/276/57
f 43/277/83 103/278/84 109/279/85
f 103/278/84 43/277/83 104/280/86
f 82/281/55 55/282/47 83/283/55
f 55/282/47 82/281/55 53/284/47
f 103/285/84 77/286/87 109/287/85
f 77/286/87 103/285/84 101/288/88
f 58/289/44 87/290/68 59/291/44
f 87/290/68 58/289/44 105/292/68
f 93/293/89 111/294/90 91/295/91
f 111/294/90 93/293/89 72/296/92
f 94/297/93 111/298/90 65/299/94
f 111/298/90 94/297/93 91/300/91
f 86/301/50 96/302/71 85/303/71
f 96/302/71 86/301/50 95/304/50
f 61/305/42 90/306/70 102/307/70
f 90/306/70 61/305/42 63/308/42
f 97/309/95 110/310/96 49/311/97
f 110/310/96 97/309/95 99/312/98
f 106/313/99 46/314/100 112/315/101
f 46/314/100 106/313/99 108/316/102
f 110/317/96 100/318/103 56/319/104
f 100/318/103 110/317/96 99/320/98
f 106/321/99 84/322/105 107/323/106
f 84/322/105 106/321/99 112/324/101
