# Blender 3.5.1
# www.blender.org
mtllib tree.trunk.mtl
o Cube
v 0.188211 0.509108 -0.770377
v 0.737080 0.580335 -0.187734
v 0.544099 -0.754485 -0.583226
v 0.410808 -0.237808 -0.987675
v 0.942930 -0.205983 -0.414235
v 0.723109 0.621700 0.150644
v 0.140588 0.620819 0.733331
v 0.920227 -0.169383 0.318698
v 0.314220 -0.168737 0.924000
v 0.473151 -0.736064 0.472981
v -0.761136 0.509108 -0.198118
v -0.188211 0.509108 -0.770377
v -0.984515 -0.238932 -0.415319
v -0.410808 -0.237808 -0.987675
v -0.583416 -0.777308 -0.582763
v -0.176979 0.581477 0.746378
v -0.761136 0.509108 0.198118
v -0.583880 -0.754492 0.543641
v -0.409455 -0.204649 0.946242
v -0.984515 -0.238932 0.415319
v 0.581462 5.658252 -0.070595
v 0.008955 5.658061 -0.651232
v 0.000000 6.219778 -0.076367
v 0.014299 5.657958 0.645561
v 0.575899 5.658086 0.084514
v 0.000000 6.219778 0.076367
v -0.581462 5.658252 -0.079363
v -0.000000 6.219778 -0.076367
v -0.008955 5.658061 -0.651232
v -0.000188 5.658061 0.651232
v -0.000000 6.219778 0.076367
v -0.581462 5.658252 0.079363
vn -0.9582 0.2861 -0.0000
vn 0.0542 0.0178 0.9984
vn -0.9994 0.0349 -0.0000
vn 0.0156 0.2400 0.9706
vn -0.0000 0.0231 -0.9997
vn 0.9689 0.2470 0.0152
vn -0.0000 1.0000 -0.0000
vn 0.0195 -0.9996 0.0195
vn 0.9989 0.0297 0.0371
vn 0.7041 -0.3161 -0.6358
vn 0.6637 -0.3426 0.6649
vn -0.6751 -0.2923 -0.6773
vn -0.6333 -0.3163 0.7063
vn 0.5750 0.5896 -0.5672
vn 0.5695 0.5921 0.5702
vn -0.5692 0.5925 -0.5701
vn -0.5664 0.5896 0.5759
vn -0.7958 -0.6056 0.0069
vn 0.0069 -0.6084 -0.7936
vn 0.6608 0.3732 -0.6512
vn -0.6503 0.3731 0.6617
vn 0.6720 0.3102 0.6724
vn -0.6524 0.3845 -0.6531
vn 0.0599 -0.6066 0.7928
vn 0.7949 -0.6038 0.0602
vn 0.2685 0.6889 0.6733
vn 0.6963 0.7176 0.0130
vn -0.6947 0.7193 -0.0000
vn -0.0000 0.7152 -0.6989
vn 0.7067 0.0300 0.7069
vn -0.6937 0.0392 0.7192
vn -0.7061 0.0409 -0.7069
vn 0.7182 0.0396 -0.6947
vn -0.0000 0.2793 -0.9602
vt 0.625000 0.405910
vt 0.625000 0.598371
vt 0.312371 0.564283
vt 0.296790 0.519092
vt 0.294837 0.500000
vt 0.479846 0.427577
vt 0.359190 0.586021
vt 0.479243 0.575641
vt 0.625000 0.655502
vt 0.625000 0.845715
vt 0.362067 0.671394
vt 0.475999 0.673895
vt 0.295912 0.737484
vt 0.476165 0.826456
vt 0.298623 0.750000
vt 0.310623 0.685599
vt 0.625000 0.157146
vt 0.625000 0.344090
vt 0.144247 0.581344
vt 0.125000 0.579645
vt 0.479627 0.177913
vt 0.206857 0.518834
vt 0.205163 0.500000
vt 0.479846 0.322423
vt 0.187527 0.562557
vt 0.625000 0.900051
vt 0.625000 0.000000
vt 0.625000 0.092854
vt 0.189258 0.687341
vt 0.479447 0.923949
vt 0.211638 0.734643
vt 0.515745 0.000000
vt 0.214466 0.750000
vt 0.144517 0.672323
vt 0.125000 0.670355
vt 0.479627 0.072087
vt 0.625000 0.500000
vt 0.625000 0.611863
vt 0.625000 0.376942
vt 0.750000 0.610043
vt 0.625000 0.375000
vt 0.625000 0.871279
vt 0.625000 0.750000
vt 0.625000 0.641919
vt 0.625000 0.875000
vt 0.750000 0.639957
vt 0.625000 0.140322
vt 0.750000 0.610043
vt 0.625000 0.139957
vt 0.625000 0.375000
vt 0.625000 0.250000
vt 0.625000 0.373058
vt 0.625000 0.874459
vt 0.625000 0.000000
vt 0.750000 0.639957
vt 0.625000 0.875000
vt 0.625000 0.110043
vt 0.625000 0.109678
s 0
usemtl Material
f 20/36/1 17/28/1 11/17/1 13/21/1
f 16/26/2 7/10/2 24/42/2 30/53/2
f 11/17/3 17/28/3 32/58/3 27/47/3
f 9/14/4 7/10/4 16/26/4 19/30/4
f 1/1/5 12/18/5 29/52/5 22/39/5
f 5/8/6 2/2/6 6/9/6 8/12/6
f 23/40/7 28/48/7 31/55/7 26/46/7
f 15/25/8 3/3/8 10/16/8 18/29/8
f 6/9/9 2/2/9 21/38/9 25/44/9
f 3/3/10 4/4/10 5/7/10
f 8/11/11 9/13/11 10/16/11
f 13/19/12 14/22/12 15/25/12
f 18/29/13 19/31/13 20/34/13
f 21/37/14 22/39/14 23/41/14
f 24/42/15 25/43/15 26/45/15
f 27/47/16 28/49/16 29/51/16
f 30/54/17 31/57/17 32/58/17
f 15/25/18 18/29/18 20/35/18 13/20/18
f 3/3/19 15/25/19 14/23/19 4/5/19
f 2/2/20 5/8/20 4/6/20 1/1/20
f 19/32/21 16/27/21 17/28/21 20/36/21
f 7/10/22 9/14/22 8/12/22 6/9/22
f 12/18/23 14/24/23 13/21/23 11/17/23
f 18/29/24 10/16/24 9/15/24 19/33/24
f 10/16/25 3/3/25 5/8/25 8/12/25
f 26/45/26 31/56/26 30/53/26 24/42/26
f 23/40/27 26/46/27 25/44/27 21/38/27
f 31/57/28 28/49/28 27/47/28 32/58/28
f 28/50/29 23/41/29 22/39/29 29/52/29
f 6/9/30 25/44/30 24/42/30 7/10/30
f 32/58/31 17/28/31 16/27/31 30/54/31
f 29/52/32 12/18/32 11/17/32 27/47/32
f 1/1/33 22/39/33 21/38/33 2/2/33
f 14/24/34 12/18/34 1/1/34 4/6/34
